HIERARCHY
ROOT Hips
{
	OFFSET 0.000000 0.000000 0.000000 
	CHANNELS 6 Xposition Yposition Zposition Zrotation Yrotation Xrotation
	JOINT LeftUpLeg
	{
		OFFSET 1.363060 -1.794630 0.839290 
		CHANNELS 3 Zrotation Yrotation Xrotation
		JOINT LeftLeg
		{
			OFFSET 2.448110 -6.726130 0.000000 
			CHANNELS 3 Zrotation Yrotation Xrotation
			JOINT LeftFoot
			{
				OFFSET 2.562200 -7.039590 0.000000 
				CHANNELS 3 Zrotation Yrotation Xrotation
				JOINT LeftToeBase
				{
					OFFSET 0.157640 -0.433110 2.322550 
					CHANNELS 3 Zrotation Yrotation Xrotation
					End Site
					{
						OFFSET 0.000000 0.000000 0.000000 
					}
				}
			}
		}
	}
	JOINT RightUpLeg
	{
		OFFSET -1.305520 -1.794630 0.839290 
		CHANNELS 3 Zrotation Yrotation Xrotation
		JOINT RightLeg
		{
			OFFSET -2.542530 -6.985550 0.000000 
			CHANNELS 3 Zrotation Yrotation Xrotation
			JOINT RightFoot
			{
				OFFSET -2.568260 -7.056230 0.000000 
				CHANNELS 3 Zrotation Yrotation Xrotation
				JOINT RightToeBase
				{
					OFFSET -0.164730 -0.452590 2.363150 
					CHANNELS 3 Zrotation Yrotation Xrotation
					End Site
					{
						OFFSET 0.000000 0.000000 0.000000 
					}
				}
			}
		}
	}
	JOINT Spine
	{
		OFFSET 0.028270 2.035590 -0.193380 
		CHANNELS 3 Zrotation Yrotation Xrotation
		JOINT Spine1
		{
			OFFSET 0.056720 2.048850 -0.042750 
			CHANNELS 3 Zrotation Yrotation Xrotation
			JOINT Neck1
			{
				OFFSET -0.054170 1.746240 0.172020 
				CHANNELS 3 Zrotation Yrotation Xrotation
				JOINT Head
				{
					OFFSET 0.104070 1.761360 -0.123970 
					CHANNELS 3 Zrotation Yrotation Xrotation
					End Site
					{
						OFFSET 0.000000 0.000000 0.000000 
					}
				}
			}
			JOINT LeftArm
			{
				OFFSET 3.362410 1.200890 -0.311210 
				CHANNELS 3 Zrotation Yrotation Xrotation
				JOINT LeftForeArm
				{
					OFFSET 4.983000 -0.000000 -0.000000 
					CHANNELS 3 Zrotation Yrotation Xrotation
					JOINT LeftHand
					{
						OFFSET 3.483560 -0.000000 -0.000000 
						CHANNELS 3 Zrotation Yrotation Xrotation
						JOINT LeftHandIndex1
						{
							OFFSET 0.715260 -0.000000 -0.000000 
							CHANNELS 3 Zrotation Yrotation Xrotation
							End Site
							{
								OFFSET 0.000000 0.000000 0.000000 
							}
						}
					}
				}
			}
			JOINT RightArm
			{
				OFFSET -3.136600 1.374050 -0.404650 
				CHANNELS 3 Zrotation Yrotation Xrotation
				JOINT RightForeArm
				{
					OFFSET -5.241900 -0.000000 -0.000000 
					CHANNELS 3 Zrotation Yrotation Xrotation
					JOINT RightHand
					{
						OFFSET -3.444170 -0.000000 -0.000000 
						CHANNELS 3 Zrotation Yrotation Xrotation
						JOINT RightHandIndex1
						{
							OFFSET -0.622530 -0.000000 -0.000000 
							CHANNELS 3 Zrotation Yrotation Xrotation
							End Site
							{
								OFFSET 0.000000 0.000000 0.000000 
							}
						}
					}
				}
			}
		}
	}
}
MOTION
Frames: 10
Frame Time: 0.041667
13.023654 17.966681 9.012352 119.868659 -84.535067 -119.836759 14.602821 -21.044574 -6.557121 -0.869733 9.599673 23.468427 7.317590 -2.230742 37.023544 1.868300 -8.586200 -24.509300 -17.840628 28.523804 -6.975518 -2.071616 -11.512599 25.701141 0.539369 -14.004747 30.194364 -5.694600 14.125700 -43.743500 0.961071 -2.406626 -3.607587 -3.174596 -1.433282 1.196381 3.893917 2.989612 10.849594 -0.705100 1.642600 6.291100 31.393576 -1.124080 -52.208968 22.713007 -26.781066 -15.459353 -4.084338 -12.145259 -3.002844 -7.125000 0.000000 0.000000 -34.430329 1.243425 -67.509229 -14.746475 21.152289 -10.140381 8.105963 -2.796809 1.099377 7.125000 0.000000 0.000000 
13.035410 18.233504 9.013970 119.799658 -84.584721 -119.141394 14.756325 -21.548491 -6.613953 -1.019396 9.163277 21.793721 6.712144 0.586000 39.663401 1.538100 -7.829200 -22.196400 -17.926038 28.797091 -6.911462 -1.780075 -10.988630 23.524599 0.632813 -16.010967 33.272860 -5.620800 14.050500 -43.440100 0.985063 -2.171491 -3.622789 -3.343351 -1.318626 1.266491 4.056968 2.850086 10.757535 -0.586100 1.563400 6.206500 30.061168 -0.903010 -50.387372 22.139645 -25.911942 -15.376847 -4.286025 -12.491981 -3.210727 -7.125000 0.000000 0.000000 -33.125198 0.660810 -65.117677 -14.040013 20.040569 -9.731470 8.635252 -3.143316 0.715245 7.125000 0.000000 0.000000 
13.049107 18.506044 9.020333 120.203761 -84.584607 -118.806925 14.893292 -21.871254 -6.834078 -0.973170 8.834260 20.188850 5.822603 4.394260 41.976892 1.235600 -7.049100 -19.860900 -18.120042 28.754314 -7.153757 -1.528915 -10.444380 21.438405 0.429946 -17.653604 36.366304 -5.173200 13.576200 -41.565800 1.006945 -2.060265 -3.640146 -3.461523 -1.271081 1.448116 3.897100 2.892811 10.791689 -0.751400 1.583900 6.258700 28.740112 -0.531286 -48.518851 21.396247 -24.900860 -15.151172 -4.464491 -12.831747 -3.182433 -7.125000 0.000000 0.000000 -31.893591 0.229041 -62.764960 -13.450141 19.082779 -9.416989 9.334508 -3.458842 0.032016 7.125000 0.000000 0.000000 
13.068628 18.784191 9.024000 121.075955 -84.840751 -118.983865 15.168105 -21.890169 -7.229359 -0.858710 8.543259 18.654924 5.110034 7.952955 44.013899 1.275100 -7.156700 -20.180400 -18.126573 28.763602 -7.372793 -1.319922 -9.943184 19.507148 0.279886 -19.466646 39.063625 -4.414300 12.692200 -38.226900 1.027277 -2.049282 -3.675158 -3.759058 -1.251570 1.516742 3.860731 2.992587 10.944909 -0.835200 1.643200 6.401200 27.528149 -0.224529 -46.273725 20.730324 -24.001124 -14.956706 -4.587947 -13.170314 -3.133000 -7.125000 0.000000 0.000000 -30.588925 -0.088925 -60.392134 -12.933946 18.212633 -9.219666 10.125581 -3.845071 -0.488048 7.125000 0.000000 0.000000 
13.094405 19.057054 9.019255 122.494268 -85.039876 -119.839253 15.386632 -21.741639 -7.623423 -0.764915 8.273304 17.207092 4.678246 11.075290 46.056676 1.318800 -7.273500 -20.528400 -18.127805 28.966101 -7.523118 -1.198510 -9.551719 17.709449 0.296355 -21.857561 41.424059 -3.673200 11.712300 -34.721700 1.018212 -1.930669 -3.703563 -4.152293 -1.181543 1.608235 4.053442 2.947608 11.298181 -0.703500 1.632500 6.793300 26.441713 -0.004335 -44.046597 19.976300 -23.084089 -14.608286 -4.763789 -13.285021 -3.226313 -7.125000 0.000000 0.000000 -29.209985 -0.480188 -58.094211 -12.461728 17.367606 -9.120577 10.753206 -4.319328 -0.386402 7.125000 0.000000 0.000000 
13.115759 19.324848 9.006421 123.901736 -84.986240 -120.733518 15.444101 -21.546890 -7.955476 -0.644196 8.085836 15.846519 4.265664 14.510396 47.953626 1.344600 -7.341300 -20.730500 -18.252205 29.200887 -7.712606 -1.133621 -9.246208 16.074718 0.182035 -24.374883 43.770118 -3.215800 11.036500 -32.403000 1.018067 -1.701352 -3.698508 -4.150482 -1.075027 1.822643 4.172923 2.956125 11.347152 -0.576800 1.625300 6.937100 25.210215 0.310892 -41.898881 19.161993 -22.108396 -14.301504 -4.892600 -13.435057 -3.509440 -7.125000 0.000000 0.000000 -28.035034 -0.856976 -56.129565 -11.966596 16.610161 -8.951050 11.180936 -4.667758 -0.064805 7.125000 0.000000 0.000000 
13.132368 19.588760 8.999195 127.656894 -85.009697 -123.889502 15.573742 -21.184383 -8.370465 -0.468194 7.962408 14.586978 3.904778 18.128762 49.621195 1.384800 -7.445900 -21.043400 -18.233527 29.246809 -8.047155 -1.009179 -8.904030 14.717294 -0.253911 -25.960505 45.909408 -2.936200 10.591100 -30.912900 1.057121 -1.444473 -3.680061 -4.005868 -0.946002 2.122989 4.148574 3.102187 11.164090 -0.538400 1.667600 6.858300 23.812561 0.730719 -39.602317 18.476283 -21.253598 -14.255247 -4.765076 -13.769064 -4.016890 -7.125000 0.000000 0.000000 -27.061424 -1.164120 -54.538549 -11.345277 15.855768 -8.609117 11.644772 -5.092397 -0.053872 7.125000 0.000000 0.000000 
13.159762 19.834444 8.995851 133.454559 -85.014364 -129.090244 15.713257 -20.823163 -8.775400 -0.250291 7.919148 13.553547 3.398510 21.782952 50.544110 1.025200 -6.441000 -18.069600 -18.134637 29.268633 -8.448308 -0.881113 -8.573642 13.685620 -0.521111 -26.894463 47.123517 -2.571400 9.966700 -28.868900 1.079787 -1.191186 -3.671904 -4.127001 -0.807274 2.426739 4.067310 3.204069 11.148403 -0.577100 1.701100 6.988000 22.542352 1.188688 -37.255849 17.823157 -20.483320 -14.175964 -4.584802 -13.980094 -4.580313 -7.125000 0.000000 0.000000 -26.089247 -1.463063 -53.304708 -10.693489 15.097883 -8.255309 12.134219 -5.765295 -0.034098 7.125000 0.000000 0.000000 
13.193951 20.058559 8.987223 138.027994 -84.913587 -133.124649 15.715653 -20.426828 -9.162878 -0.084394 7.896400 12.882021 2.872989 24.483601 50.769649 0.410100 -4.110900 -11.389000 -17.991825 29.228430 -8.837641 -0.715883 -8.239972 13.010439 -0.760656 -26.687682 47.613403 -2.546900 9.922700 -28.726900 1.079799 -0.847783 -3.665758 -4.359938 -0.642174 2.713169 3.943079 3.073408 11.202535 -0.684300 1.626800 7.244600 21.441173 1.500567 -34.946568 17.186723 -19.817790 -14.041918 -4.581980 -14.397807 -5.094620 -7.125000 0.000000 0.000000 -25.070375 -1.870406 -52.226029 -10.118173 14.357679 -7.953086 12.472694 -6.245675 0.174929 7.125000 0.000000 0.000000 
13.231915 20.266711 8.986684 139.316204 -84.877522 -133.915295 15.562375 -20.089994 -9.557550 -0.048808 7.781961 12.534425 2.625889 25.382368 50.762250 0.084500 -1.875300 -5.161000 -17.796142 28.802089 -9.306887 -0.480033 -7.864687 12.744585 -1.210353 -24.754175 47.600928 -2.865200 10.473600 -30.524400 1.094669 -0.730831 -3.680463 -4.391015 -0.587283 2.789439 3.693923 3.185364 11.046359 -0.874500 1.660400 7.274000 20.304926 1.875567 -32.378440 16.454414 -19.093238 -13.801954 -4.644949 -14.849047 -5.511681 -7.125000 0.000000 0.000000 -24.121827 -2.101204 -51.176028 -9.575477 13.738780 -7.654977 12.559413 -6.443015 0.696617 7.125000 0.000000 0.000000 
